<svg height="512" viewBox="0 0 512 512" width="512" xmlns="http://www.w3.org/2000/svg"><g fill="none" fill-rule="evenodd" transform="translate(32 32)"><path d="m64.352 382.19h317.84v-317.84h-317.84z" fill="#e4e450"/><path d="m294.57 263.826v-39.66h-17.65v39.66h-1.95v-39.66h-9.845v-2.07h9.845v-36.648l-33.028 49.012h-1.373l-33.024-48.89v78.256h-1.953v-81.39h1.958l33.585 49.684 33.831-49.684h1.954v39.66h17.65v-39.66h43.834v1.951h-42.001v37.709h29.408v2.07h-29.408v39.66z" fill="#000"/><path d="m149.714402 181.698403c-22.9236 0-41.5736 18.65-41.5736 41.5728 0 22.922801 18.65 41.572801 41.5736 41.572801 22.922001 0 41.571601-18.65 41.571601-41.572801 0-.2408-.0108-.7848-.0236-1.1792l-35.534801.0044v2.0692h33.444401l-.0196.5232c-.3596 10.203201-4.5836 19.749601-11.8956 26.880801-7.408 7.2284-17.189601 11.2092-27.542401 11.2092-21.784 0-39.5076-17.7224-39.5076-39.507601 0-21.7852 17.7236-39.5076 39.5076-39.5076 16.294 0 30.678401 9.7848 36.696001 24.9472h2.2016c-6.0544-16.1716-21.640001-27.0124-38.897601-27.0124" fill="#000"/><path d="m0 223.414 223.414-223.414 223.413 223.414-223.413 223.412z" stroke="#000" stroke-width="1.6"/></g></svg>